<svg width="27" height="24" viewBox="0 0 27 24" fill="none" xmlns="http://www.w3.org/2000/svg">
<path d="M5.66665 5.33333V0H21.6666V5.33333H5.66665ZM21.6666 12.6667C22.0444 12.6667 22.3613 12.5387 22.6173 12.2827C22.8733 12.0267 23.0009 11.7102 23 11.3333C22.9991 10.9564 22.8711 10.64 22.616 10.384C22.3609 10.128 22.0444 10 21.6666 10C21.2889 10 20.9724 10.128 20.7173 10.384C20.4622 10.64 20.3342 10.9564 20.3333 11.3333C20.3324 11.7102 20.4604 12.0271 20.7173 12.284C20.9742 12.5409 21.2906 12.6684 21.6666 12.6667ZM8.33331 21.3333H19V16H8.33331V21.3333ZM5.66665 24V18.6667H0.333313V6.66667H27V18.6667H21.6666V24H5.66665Z" fill="#31576D"/>
</svg>
