<svg width="25" height="23" viewBox="0 0 25 23" fill="none" xmlns="http://www.w3.org/2000/svg">
<path d="M7.00001 10.36C7.27557 10.36 7.51557 10.2578 7.72001 10.0533C7.92445 9.84889 8.02668 9.60889 8.02668 9.33333C8.02668 9.05778 7.92445 8.81778 7.72001 8.61333C7.51557 8.40889 7.27557 8.30667 7.00001 8.30667C6.72445 8.30667 6.48445 8.40889 6.28001 8.61333C6.07557 8.81778 5.97334 9.05778 5.97334 9.33333C5.97334 9.60889 6.07557 9.84889 6.28001 10.0533C6.48445 10.2578 6.72445 10.36 7.00001 10.36ZM12.3333 10.36C12.6089 10.36 12.8489 10.2578 13.0533 10.0533C13.2578 9.84889 13.36 9.60889 13.36 9.33333C13.36 9.05778 13.2578 8.81778 13.0533 8.61333C12.8489 8.40889 12.6089 8.30667 12.3333 8.30667C12.0578 8.30667 11.8178 8.40889 11.6133 8.61333C11.4089 8.81778 11.3067 9.05778 11.3067 9.33333C11.3067 9.60889 11.4089 9.84889 11.6133 10.0533C11.8178 10.2578 12.0578 10.36 12.3333 10.36ZM17.6667 10.36C17.9422 10.36 18.1822 10.2578 18.3867 10.0533C18.5911 9.84889 18.6933 9.60889 18.6933 9.33333C18.6933 9.05778 18.5911 8.81778 18.3867 8.61333C18.1822 8.40889 17.9422 8.30667 17.6667 8.30667C17.3911 8.30667 17.1511 8.40889 16.9467 8.61333C16.7422 8.81778 16.64 9.05778 16.64 9.33333C16.64 9.60889 16.7422 9.84889 16.9467 10.0533C17.1511 10.2578 17.3911 10.36 17.6667 10.36ZM0.333344 22.768V2.15333C0.333344 1.54 0.539121 1.028 0.950677 0.617333C1.36223 0.206667 1.87423 0.000888889 2.48668 0H22.18C22.7933 0 23.3053 0.205778 23.716 0.617333C24.1267 1.02889 24.3325 1.54089 24.3333 2.15333V16.5133C24.3333 17.1267 24.128 17.6391 23.7173 18.0507C23.3067 18.4622 22.7942 18.6676 22.18 18.6667H4.43601L0.333344 22.768Z" fill="#31576D"/>
</svg>
